<svg width="11" height="11" viewBox="0 0 11 11" fill="none" xmlns="http://www.w3.org/2000/svg">
<style>
    path { fill: white; }
    @media (prefers-color-scheme: light) {
        path { fill: black; }
    }
</style>
<path d="M0.898438 10.3896C0.394295 10.3384 0.000100606 9.91217 8.74228e-08 9.39453L8.21296e-07 0.999999L0.00586021 0.898437C0.0535571 0.427762 0.427821 0.0537464 0.898438 0.00585854L1 -8.21296e-07L9.39453 -8.74228e-08L9.49707 0.0058593C9.96765 0.0538002 10.342 0.427778 10.3896 0.898437L10.3945 1L10.3945 9.39453C10.3944 9.94672 9.94675 10.3945 9.39453 10.3945L1 10.3945L0.898438 10.3896ZM9.39453 6.0293L7.3457 7.21191C7.19382 7.2996 7.02108 7.34562 6.8457 7.3457L3.40918 7.3457L3.40918 6.3457L6.8457 6.3457L9.39453 4.875L9.39453 1L1 0.999999L1 4.34766L3.0752 3.14844C3.227 3.06088 3.39995 3.01473 3.5752 3.01465L7.01172 3.01465L7.01172 4.01465L3.5752 4.01465L1 5.50195L1 9.39453L9.39453 9.39453L9.39453 6.0293Z"/>
</svg>
