<svg width="206" height="206" viewBox="0 0 206 206" fill="none" xmlns="http://www.w3.org/2000/svg">
<path d="M196.27 79.9351L189.77 83.2349C184.34 86.0249 181.09 91.7748 181.56 97.9146C181.73 99.9346 181.77 101.995 181.77 104.005C181.769 114.695 179.68 125.075 175.57 134.865C171.6 144.305 165.91 152.765 158.69 160.055C151.47 167.355 143.01 173.065 133.65 177.055C123.95 181.175 113.61 183.275 102.97 183.275C92.3299 183.275 82.0299 181.175 72.29 177.055C67.08 174.825 62.12 172.035 57.5 168.775L70.5801 162.075L71.0898 161.815C80.7498 167.225 91.7698 170.095 102.97 170.095H103.44C112.03 170.055 120.41 168.335 128.31 164.985C136.22 161.635 143.31 156.875 149.38 150.775C161.77 138.325 168.61 121.715 168.61 104.125C168.61 101.245 168.44 98.3344 168.05 95.4546L167.92 94.5552L167.11 94.9849L57.8398 150.825L35.2305 162.415L9.73047 175.475V160.625L36.0098 147.145L48.96 140.535L196.27 65.0854V79.9351ZM103.02 22.7251C113.66 22.7251 123.96 24.8248 133.7 28.9448C138.87 31.1348 143.83 33.9251 148.44 37.1851L147.46 37.7046L134.81 44.1851C125.15 38.7751 114.169 35.9448 103.02 35.9448H102.51C93.9198 36.0349 85.5396 37.7452 77.6396 41.0552C69.7298 44.4052 62.6402 49.1653 56.5703 55.2651C44.1804 67.7551 37.3399 84.3247 37.3398 101.915C37.3398 104.794 37.5104 107.665 37.9004 110.544L38.0303 111.445L38.8398 111.015L148.03 55.0952L170.64 43.5044L196.24 30.3745V45.2251L169.87 58.7446L156.92 65.355L41.8301 124.375L41.3203 124.675L35.4199 127.685L29.4404 130.735V130.695L28.8799 130.955L9.73047 140.754V125.905L16.2305 122.605C21.6601 119.815 24.9102 114.065 24.4404 107.925C24.3104 105.905 24.2305 103.895 24.2305 101.875C24.2305 91.1848 26.3198 80.8049 30.4297 71.0151C34.3997 61.5752 40.0896 53.1147 47.3096 45.8247C54.5295 38.5748 62.9497 32.8247 72.3496 28.8247C82.0395 24.8248 92.3797 22.7252 103.02 22.7251Z" fill="black"/>
</svg>
